<svg xmlns="http://www.w3.org/2000/svg" width="54.558" height="54.558" viewBox="0 0 54.558 54.558">
  <path id="clock-regular" d="M35.279,8A27.279,27.279,0,1,0,62.558,35.279,27.274,27.274,0,0,0,35.279,8Zm0,49.278a22,22,0,1,1,22-22A21.993,21.993,0,0,1,35.279,57.278Zm6.8-11.484-9.339-6.787a1.329,1.329,0,0,1-.539-1.067V19.879a1.324,1.324,0,0,1,1.32-1.32h3.52a1.324,1.324,0,0,1,1.32,1.32V35.466l7.348,5.346a1.319,1.319,0,0,1,.286,1.848l-2.068,2.849a1.329,1.329,0,0,1-1.848.286Z" transform="translate(-8 -8)" fill="#fff"/>
</svg>
