<svg xmlns="http://www.w3.org/2000/svg" width="58.474" height="50.203" viewBox="0 0 58.474 50.203">
  <path id="connectdevelop-brands" d="M70.93,39.532l-5.339-9.077a1.658,1.658,0,0,0,.2-.756,1.613,1.613,0,0,0-1.57-1.569L58.311,18.1A1.522,1.522,0,0,0,56.8,16a1.625,1.625,0,0,0-1.256.588H44.178a1.575,1.575,0,0,0-2.455,0H30.416A1.63,1.63,0,0,0,27.532,17.6a1.45,1.45,0,0,0,.114.5L21.679,28.27a1.566,1.566,0,0,0-.971,1.429c0,.056.029.112.029.168L15.055,39.5a1.6,1.6,0,0,0-1.342,1.569A1.625,1.625,0,0,0,15,42.641l5.882,9.973a1.439,1.439,0,0,0-.086.5,1.571,1.571,0,0,0,1.285,1.541l5.511,9.385a1.781,1.781,0,0,0-.114.56A1.612,1.612,0,0,0,29.1,66.2a1.589,1.589,0,0,0,1.228-.56H41.722a1.625,1.625,0,0,0,2.455,0H55.6a1.623,1.623,0,0,0,2.8-1.093,1.141,1.141,0,0,0-.086-.448l5.511-9.441a1.56,1.56,0,0,0,1.2-2.045l5.853-9.973a1.6,1.6,0,0,0,1.313-1.569A1.575,1.575,0,0,0,70.93,39.532ZM28.617,61.467l-4.654-7.928h4.654Zm0-8.769H23.963a1.7,1.7,0,0,0-.143-.336l4.8-4.959Zm0-6.527-5.368,5.575a2.7,2.7,0,0,0-.428-.168L16.882,41.493a1.071,1.071,0,0,0,.057-.42,1.452,1.452,0,0,0-.029-.364L22.45,31.3a1.822,1.822,0,0,0,.828-.28l5.339,5.435v9.721Zm0-10.7-4.882-4.959a1.51,1.51,0,0,0,.228-.812c0-.028-.029-.084-.029-.112l4.682-1.653Zm0-8.432L23.963,28.69l4.654-7.9Zm34.8,4.09.086.14L59.738,48.748l-6.8-7.032L63.393,31.1ZM43.35,51.466,44.577,52.7H42.151Zm-.029-1.177-8.879-8.937,8.48-8.825,8.851,9.161Zm.571.616,8.451-8.6,7.195,7.452L58.91,52.7H45.691ZM56,18.969a1.449,1.449,0,0,0,.371.14l6.167,10.534V29.7a1.509,1.509,0,0,0,.228.812L52.372,41.1,43.521,31.94Zm-.971-.224L42.921,31.323l-6.082-6.3,17.73-6.275h.457Zm-13.162,0a1.537,1.537,0,0,0,2.17,0h7.994l-15.818,5.6-5.425-5.6Zm-12.391.588.114-.224q.144-.036.286-.084l5.453,5.631-5.853,2.073Zm0,8.292,6.481-2.3,6.367,6.611-8.48,8.8-4.368-4.4Zm0,9.693,3.883,3.95-3.883,4.006V37.318Zm0,9.189,4.483-4.65,8.822,8.993L40.951,52.7H29.474V46.507Zm.742,16.949a1.54,1.54,0,0,0-.628-.364l-.114-.168V53.539h10.65l-9.765,9.917Zm13.848,0a1.608,1.608,0,0,0-2.227,0H31.558l9.765-9.917h4.083l9.765,9.917H44.064Zm12.791-1.233-.457.784a1.452,1.452,0,0,0-.371.14l-9.508-9.609H58.711l-1.856,8.685Zm1.37-2.325L59.6,53.539h2.341Zm3.712-7.2h-2.17l.485-2.213,1.827,1.9A1.027,1.027,0,0,0,61.937,52.7Zm7.052-11.234-5.91,10.113a2.906,2.906,0,0,0-.428.2l-2.2-2.3,3.683-17.145,4.882,8.292a2.093,2.093,0,0,0-.086.448A1.858,1.858,0,0,0,68.989,41.465Z" transform="translate(-13.713 -15.999)" fill="#fff"/>
</svg>
