<svg xmlns="http://www.w3.org/2000/svg" width="54.558" height="54.558" viewBox="0 0 54.558 54.558">
  <path id="headset-solid" d="M20.459,22.164a3.41,3.41,0,0,0-3.41-3.41h-1.7a6.819,6.819,0,0,0-6.82,6.82v5.115a6.819,6.819,0,0,0,6.82,6.82h1.7a3.41,3.41,0,0,0,3.41-3.41ZM39.213,37.508a6.819,6.819,0,0,0,6.82-6.82V25.574a6.819,6.819,0,0,0-6.82-6.82h-1.7a3.41,3.41,0,0,0-3.41,3.41V34.1a3.41,3.41,0,0,0,3.41,3.41ZM27.279,0C12.06,0,.488,12.662,0,27.279v1.7a1.7,1.7,0,0,0,1.7,1.7h1.7a1.7,1.7,0,0,0,1.7-1.7v-1.7A22.159,22.159,0,0,1,45.8,15.11a21.858,21.858,0,0,1,3.647,12.168H49.43c.009.259.013,17.659.013,17.659a4.505,4.505,0,0,1-4.505,4.505H34.1a5.115,5.115,0,0,0-5.115-5.115h-3.41a5.115,5.115,0,0,0,0,10.23H44.938a9.62,9.62,0,0,0,9.62-9.62V27.279C54.07,12.662,42.5,0,27.279,0Z" fill="#fff"/>
</svg>
